<svg xmlns="http://www.w3.org/2000/svg" width="18" height="19" viewBox="0 0 18 19" fill="none">
  <path d="M3.01583 11.6662L8.31622 15.1998V12.0441L5.38035 10.084L3.01583 11.6662ZM2.47085 10.4004L4.16733 9.26649L2.47085 8.13258V10.4004ZM9.66989 15.1998L14.9703 11.6662L12.6058 10.084L9.66989 12.0441V15.1998ZM8.99306 10.8663L11.3839 9.26649L8.99306 7.66671L6.60217 9.26649L8.99306 10.8663ZM5.38035 8.44902L8.31622 6.48884V3.33322L3.01583 6.86682L5.38035 8.44902ZM13.8188 9.26649L15.5153 10.4004V8.13258L13.8188 9.26649ZM12.6058 8.44902L14.9703 6.86682L9.66989 3.33322V6.48884L12.6058 8.44902ZM16.8689 6.86682V11.6662C16.8689 11.9064 16.7693 12.094 16.5701 12.2287L9.37103 17.0281C9.24797 17.1043 9.12198 17.1424 8.99306 17.1424C8.86414 17.1424 8.73815 17.1043 8.61509 17.0281L1.41605 12.2287C1.21681 12.094 1.11719 11.9064 1.11719 11.6662V6.86682C1.11719 6.62655 1.21681 6.43903 1.41605 6.30425L8.61509 1.5049C8.73815 1.42872 8.86414 1.39062 8.99306 1.39062C9.12198 1.39062 9.24797 1.42872 9.37103 1.5049L16.5701 6.30425C16.7693 6.43903 16.8689 6.62655 16.8689 6.86682Z" fill="#727272"/>
</svg>