<svg xmlns="http://www.w3.org/2000/svg" width="17" height="16" viewBox="0 0 17 16" fill="none">
  <mask id="mask0_5522_31538" style="mask-type:alpha" maskUnits="userSpaceOnUse" x="0" y="0" width="17" height="17">
    <rect x="0.5" y="0.222656" width="16" height="16" fill="#D9D9D9"/>
  </mask>
  <g mask="url(#mask0_5522_31538)">
    <path d="M8.50065 11.5557C8.68954 11.5557 8.84787 11.4918 8.97565 11.364C9.10343 11.2362 9.16732 11.0779 9.16732 10.889C9.16732 10.7001 9.10343 10.5418 8.97565 10.414C8.84787 10.2862 8.68954 10.2223 8.50065 10.2223C8.31176 10.2223 8.15343 10.2862 8.02565 10.414C7.89787 10.5418 7.83398 10.7001 7.83398 10.889C7.83398 11.0779 7.89787 11.2362 8.02565 11.364C8.15343 11.4918 8.31176 11.5557 8.50065 11.5557ZM7.83398 8.889H9.16732V4.889H7.83398V8.889ZM8.50065 14.889C7.57843 14.889 6.71176 14.714 5.90065 14.364C5.08954 14.014 4.38398 13.539 3.78398 12.939C3.18398 12.339 2.70898 11.6334 2.35898 10.8223C2.00898 10.0112 1.83398 9.14455 1.83398 8.22233C1.83398 7.30011 2.00898 6.43344 2.35898 5.62233C2.70898 4.81122 3.18398 4.10566 3.78398 3.50566C4.38398 2.90566 5.08954 2.43066 5.90065 2.08066C6.71176 1.73066 7.57843 1.55566 8.50065 1.55566C9.42287 1.55566 10.2895 1.73066 11.1007 2.08066C11.9118 2.43066 12.6173 2.90566 13.2173 3.50566C13.8173 4.10566 14.2923 4.81122 14.6423 5.62233C14.9923 6.43344 15.1673 7.30011 15.1673 8.22233C15.1673 9.14455 14.9923 10.0112 14.6423 10.8223C14.2923 11.6334 13.8173 12.339 13.2173 12.939C12.6173 13.539 11.9118 14.014 11.1007 14.364C10.2895 14.714 9.42287 14.889 8.50065 14.889ZM8.50065 13.5557C9.98954 13.5557 11.2507 13.039 12.284 12.0057C13.3173 10.9723 13.834 9.71122 13.834 8.22233C13.834 6.73344 13.3173 5.47233 12.284 4.439C11.2507 3.40566 9.98954 2.889 8.50065 2.889C7.01176 2.889 5.75065 3.40566 4.71732 4.439C3.68398 5.47233 3.16732 6.73344 3.16732 8.22233C3.16732 9.71122 3.68398 10.9723 4.71732 12.0057C5.75065 13.039 7.01176 13.5557 8.50065 13.5557Z" fill="#017DF9"/>
  </g>
</svg>